PathFileType	3	(X/Y/Z)	RCH0000002 BBF 05.c3d
DataRate	CameraRate	NumFrames	NumMarkers	Units	OrigDataRate	OrigDataStartFrame	OrigNumFrames
100.0	100.0	11	23	mm	100.0	222	252
Frame#	Time	T2			T10			MAN			LASI			RASI			LPSI			RPSI			LPAT			LKNE			LANK			LMED			LHEE			LTOE			RPAT			RKNE			RANK			RMED			RHEE			RTOE			RTHI			LTHI			RTIB			LTIB			
		X1	Y1	Z1	X2	Y2	Z2	X3	Y3	Z3	X4	Y4	Z4	X5	Y5	Z5	X6	Y6	Z6	X7	Y7	Z7	X8	Y8	Z8	X9	Y9	Z9	X10	Y10	Z10	X11	Y11	Z11	X12	Y12	Z12	X13	Y13	Z13	X14	Y14	Z14	X15	Y15	Z15	X16	Y16	Z16	X17	Y17	Z17	X18	Y18	Z18	X19	Y19	Z19	X20	Y20	Z20	X21	Y21	Z21	X22	Y22	Z22	X23	Y23	Z23	

222	2.210	-642.69970	-55.37206	954.68618	-641.14605	-64.37723	773.93995	-510.74652	-33.69222	927.92440	-543.38056	-15.37044	618.41316	-574.38514	-189.00476	643.40577	-659.49625	-36.70630	673.93791	-667.68755	-105.58842	688.68746	-460.71270	-75.26988	385.65772	-480.69900	-10.91766	336.62258	-519.22340	20.90649	68.90128	-526.74211	-50.38594	79.00149	-565.20573	-16.26189	92.22197	-474.45969	-20.24882	68.27137	-672.40767	-153.51746	348.58126	-733.77868	-200.94568	343.83787	-885.97265	-210.94672	112.16337	-889.04249	-143.43317	127.12523	-909.65932	-180.73306	163.30124	-858.48223	-172.34663	75.53213	-682.66395	-266.23947	446.12720	-516.84542	64.73652	452.67935	-807.36670	-270.98042	251.30890	-485.39314	63.40780	230.14011	
223	2.220	-630.48653	-54.43689	953.05505	-626.02627	-64.56770	772.40119	-498.37493	-32.94333	927.68884	-529.43190	-13.12918	618.42147	-558.32209	-187.09973	640.22317	-644.70413	-36.73444	674.46487	-652.09143	-106.00259	687.76787	-452.11878	-72.25439	382.82686	-472.92231	-7.95397	334.39505	-515.36831	22.69771	67.00764	-523.39793	-48.45028	78.03811	-561.19461	-13.94763	91.15763	-470.68803	-18.78763	66.69196	-654.65084	-150.71667	344.68943	-716.03848	-198.30675	340.27857	-875.01331	-210.49226	114.26597	-878.39413	-142.92282	129.29289	-896.56147	-180.38736	166.39236	-850.27449	-171.67000	76.13646	-665.49663	-263.62020	442.87622	-506.52653	67.58748	451.22173	-790.66367	-269.17683	250.13676	-478.86006	65.88533	227.53356	
224	2.230	-618.40664	-53.79725	952.39586	-611.06579	-65.01677	771.81513	-486.19117	-32.39597	928.41377	-516.05052	-10.43267	619.41820	-542.04333	-184.77781	637.74377	-630.25669	-37.01737	676.03789	-636.57566	-106.67847	687.74075	-444.95728	-68.20676	380.71491	-467.10345	-4.22118	332.91531	-513.54206	24.47281	65.74055	-521.81525	-46.47218	77.81552	-559.06078	-11.71063	90.86713	-468.86447	-17.22932	65.62181	-635.54371	-147.38831	341.38780	-696.67851	-195.41938	336.97010	-862.07644	-210.08729	116.76293	-866.03263	-142.48051	131.88107	-881.63590	-180.20311	169.78529	-840.17924	-170.96880	77.25366	-646.78814	-260.70621	439.95394	-497.95279	71.13241	450.55285	-771.78574	-267.26643	249.06673	-474.62294	68.89852	225.44781	
225	2.240	-606.46825	-53.47313	952.74213	-596.38095	-65.65620	772.20729	-474.21069	-32.08311	930.07721	-503.27064	-7.32342	621.37123	-525.69405	-182.04909	636.08673	-616.21861	-37.46629	678.58381	-621.25312	-107.50581	688.59763	-439.22562	-63.29301	379.35159	-463.16706	0.17048	332.22113	-513.17509	26.20245	65.06543	-521.44222	-44.48785	78.25174	-558.29574	-9.58986	91.23507	-468.43144	-15.60168	65.04434	-615.22418	-143.57033	338.84660	-675.86380	-192.28826	334.09195	-847.22952	-209.66269	119.67067	-851.93579	-142.02298	134.85871	-865.01900	-180.03918	173.44699	-828.06582	-170.23639	78.93234	-626.69004	-257.50980	437.52545	-491.04616	75.25462	450.69828	-751.05046	-265.20521	248.27907	-472.41484	72.36596	223.92447	
226	2.250	-594.67947	-53.46566	954.07505	-582.07299	-66.40489	773.54999	-462.44438	-32.02747	932.61465	-491.09561	-3.86520	624.19748	-509.41266	-178.94431	635.33259	-602.62770	-37.98111	681.97975	-606.21839	-108.36484	690.28453	-434.84633	-57.75818	378.70812	-460.94266	5.04660	332.29556	-513.76135	27.83033	64.93675	-521.78347	-42.56415	79.24864	-558.43738	-7.65866	92.14531	-468.88573	-13.95629	64.92285	-593.84782	-139.32992	337.20756	-653.79025	-188.92969	331.80932	-830.57205	-209.15013	122.96886	-836.10814	-141.46774	138.15760	-846.87443	-179.75611	177.31627	-813.83870	-169.46265	81.17643	-605.39969	-254.05547	435.74572	-485.63301	79.78582	451.62438	-728.81854	-262.96170	247.95386	-471.93950	76.14795	222.97945	
227	2.260	-583.04626	-53.75533	956.32420	-568.22315	-67.17652	775.76397	-450.89650	-32.23897	935.92022	-479.50284	-0.13885	627.76931	-493.32470	-175.51447	635.51336	-589.49879	-38.46222	686.06076	-591.54655	-109.13926	692.70343	-431.66359	-51.89272	378.71252	-460.17070	10.18804	333.07545	-514.88644	29.28083	65.30440	-522.42534	-40.78955	80.70313	-559.09328	-6.01637	93.49383	-469.80655	-12.36014	65.20596	-571.57436	-134.75998	336.57084	-630.66785	-185.37382	330.25540	-812.21602	-208.48979	126.59188	-818.57423	-140.74326	141.67315	-827.36747	-179.23483	181.30094	-797.44186	-168.63342	83.93802	-583.15118	-250.38261	434.74371	-481.46588	84.52733	453.24361	-705.44738	-260.52471	248.24075	-472.88584	80.06406	222.60477	
228	2.270	-571.57037	-54.30201	959.37199	-554.88975	-67.88787	778.72414	-439.56288	-32.71325	939.85046	-468.45117	3.76353	631.92420	-477.53812	-171.82813	636.60609	-576.82973	-38.82278	690.63053	-577.29362	-109.72927	695.71700	-429.44981	-45.99241	379.26555	-460.51941	15.35755	334.46260	-516.23579	30.47249	66.11709	-523.04659	-39.25916	82.51588	-559.94930	-4.77085	95.19557	-470.86786	-10.88424	65.83251	-548.55576	-129.97167	336.98654	-606.70391	-181.66414	329.51717	-792.26889	-207.63520	130.42778	-799.37249	-139.79625	145.27066	-806.64293	-178.39013	185.27994	-778.86134	-167.72966	87.11832	-560.20304	-246.54628	434.60781	-478.25342	89.27438	455.42594	-681.24919	-257.90472	249.23142	-474.93564	83.91744	222.77063	
229	2.280	-560.24751	-55.04702	963.06160	-542.10702	-68.46673	782.26863	-428.42979	-33.43150	944.23057	-457.88917	7.74522	636.47645	-462.14015	-167.96651	638.53110	-564.60794	-38.99946	695.47388	-563.49809	-110.06263	699.15617	-427.92173	-40.31970	380.25368	-461.61036	20.32858	336.33487	-517.58709	31.33498	67.32210	-523.41809	-38.05639	84.59624	-560.76722	-4.01498	97.18459	-471.83729	-9.59103	66.73515	-524.92734	-125.08433	338.45235	-582.08792	-177.85446	329.62720	-770.82142	-206.55526	134.32573	-778.55041	-138.59504	148.79658	-784.81025	-177.17759	189.11106	-758.12501	-166.72710	90.57714	-536.82316	-242.61550	435.37506	-475.69255	93.83902	458.01438	-656.46030	-255.12938	250.94111	-477.76648	87.52157	223.42711	
230	2.290	-549.06616	-55.91702	967.20756	-529.88571	-68.85843	786.21044	-417.47375	-34.36155	948.86290	-447.76297	11.71166	641.22964	-447.19572	-164.01722	641.15542	-552.81632	-38.95999	700.36976	-550.18300	-110.10209	702.82996	-426.76431	-35.07397	381.55732	-463.04932	24.91170	338.55608	-518.79317	31.82617	68.86225	-523.39537	-37.23495	86.86306	-561.37632	-3.80230	99.40840	-472.56583	-8.52295	67.84267	-500.80290	-120.21434	340.91737	-556.97980	-174.00356	330.56297	-747.94183	-205.23386	138.11153	-756.16123	-137.12940	152.09339	-761.93753	-175.59337	192.64341	-735.29905	-165.59685	94.14937	-513.27179	-238.66888	437.02624	-473.49697	98.06824	460.84170	-631.22607	-252.23562	253.30423	-481.05338	90.72505	224.50570	
231	2.300	-538.00692	-56.82963	971.60808	-518.21495	-69.03029	790.35023	-406.66217	-35.46015	953.53719	-438.02225	15.57655	645.98863	-432.74717	-160.06749	644.30127	-541.43747	-38.70634	705.10354	-537.35795	-109.84824	706.53650	-425.65944	-30.37597	383.05476	-464.45806	28.97372	340.98402	-519.76226	31.94519	70.67173	-522.90772	-36.80529	89.24257	-561.66327	-4.12792	101.81919	-472.97287	-7.69440	69.08145	-476.27424	-115.46458	344.29154	-531.50304	-170.16885	332.25364	-723.67598	-203.66783	141.60796	-732.26182	-135.40721	155.01537	-738.05402	-173.66794	195.73233	-710.48112	-164.30753	97.66553	-489.78424	-234.78766	439.48747	-471.41786	101.85493	463.74562	-605.60256	-249.26116	256.18546	-484.47292	93.43016	225.92101	
232	2.310	-527.04289	-57.70001	976.05774	-507.06506	-68.97341	794.48912	-395.95495	-36.67637	958.04174	-428.62353	19.26665	650.57015	-418.81526	-156.19780	647.75877	-530.45575	-38.27315	709.47793	-525.02078	-109.33741	710.07464	-424.31559	-26.26761	384.62381	-465.50315	32.44708	343.47684	-520.44080	31.73805	72.67290	-521.94627	-36.72885	91.66494	-561.56334	-4.92006	104.36513	-473.03031	-7.08873	70.37690	-451.41511	-110.91588	348.45866	-505.74367	-166.39985	334.59278	-698.05252	-201.86397	144.65628	-706.91128	-133.44912	157.44248	-713.15915	-171.45536	198.25393	-683.79142	-162.82851	100.97222	-466.55530	-231.04718	442.63846	-469.25503	105.14140	466.58016	-579.57280	-246.23795	259.40393	-487.71250	95.60259	227.57336	
